<svg id="Capa_1" data-name="Capa 1" xmlns="http://www.w3.org/2000/svg" viewBox="0 0 269.39 239.97"><defs><style>.cls-1{fill:#203d9d;}</style></defs><path class="cls-1" d="M100.55,150.45c-1.89-.18-3.16-.42-4.43-.42-13.33,0-26.67-.17-40,.13a9.74,9.74,0,0,0-6.5,3.28c-6.08,7.51-11.57,15.48-17.64,23a9.93,9.93,0,0,1-6.44,3.41C17.28,180.25,9,180,0,180c2.73-11.13,5.23-21.44,7.79-31.73C9.44,141.64,10.91,135,13,128.45c1.94-6.19,1.18-12-.42-18.1C8.42,94.74,4.67,79,.79,63.36c-.19-.76-.22-1.57-.41-3,9.46,0,18.56-.17,27.65.17,1.52,0,3.25,2.09,4.4,3.58C38.34,71.71,44,79.54,50,87.14,51.05,88.52,53.06,90,54.66,90c14.5.22,29,.13,43.51.09a11.05,11.05,0,0,0,2.34-.61C92.07,60,83.68,30.59,75.11.62A45.44,45.44,0,0,1,79.78.08C91.62,0,103.45.14,115.29,0a6.3,6.3,0,0,1,6.34,3.65c15.4,27.07,31,54,46.34,81.13,2.19,3.87,4.54,5.64,9.27,5.53,15.33-.35,30.67-.14,46-.13,13.89,0,26.17,4.9,36.85,13.38,12.06,9.56,12.39,22.16.9,32.44-10.75,9.6-23.85,13.75-38.11,14-15.66.23-31.34.13-47,0-3.39,0-5.32.94-7.08,4.05-15.25,27-30.79,53.76-46.06,80.71-2.13,3.77-4.42,5.39-9,5.25-12.63-.37-25.29-.12-38.77-.12Z"/></svg>