<svg id="Capa_1" data-name="Capa 1" xmlns="http://www.w3.org/2000/svg" viewBox="0 0 299.16 179.5"><defs><style>.cls-1{fill:#203d9d;}</style></defs><path class="cls-1" d="M197,161.33c-4.79,8.12-11,13.92-20.87,14.38s-15.63-7.13-22.82-12.53c-.89,1.25-1.61,2.09-2.14,3-8.25,14.81-23.24,17.61-35.83,6.48C103,161.79,90.63,150.84,78.61,139.57c-3.91-3.67-7.77-6-13.2-5.19-4,.58-5.52-.94-5.5-5.24q.26-47.22,0-94.44a7.77,7.77,0,0,1,3.92-7.38C73.92,20.8,83.77,14,93.85,7.48a42.92,42.92,0,0,1,36.3-5.4A36,36,0,0,1,134.39,4c-8.27,6.6-16.16,12.63-23.73,19-7.22,6.09-15.06,11.8-20.93,19C80,54.11,82.09,72.91,93.12,84.11c11.31,11.47,29.18,13.73,42,4.8,9-6.25,17.55-13.19,26.6-20,9,8.27,18,16.42,26.94,24.62q17.28,15.88,34.5,31.83c9.34,8.67,11.18,19.44,5,28.61-7,10.38-17.28,13.19-29.2,8C198.55,161.73,198.05,161.65,197,161.33Z"/><path class="cls-1" d="M239.1,117.47,175.16,58.61l7.72-6.11c5-4,6.12-8.37,3.07-12.4s-7.9-4.22-13.14-.1q-20.62,16.19-41.19,32.44c-5.56,4.42-11.34,7.47-18.81,5.33C105.68,75.71,101.63,71,99.8,64c-1.68-6.35.35-11.67,5.12-15.7C118.27,37.05,131.62,25.75,145.4,15c6.34-4.94,13.22-9.85,20.67-12.56,13.2-4.8,26.23-2.29,38.09,5.33q16.16,10.4,32.15,21.06c1.27.85,2.67,2.71,2.67,4.11C239.14,60.57,239.1,88.19,239.1,117.47Z"/><path class="cls-1" d="M255.1,84.71c0-16.33.17-32.66-.11-49-.08-4.56,1.39-5.58,5.7-5.44,9.82.32,19.65.07,29.48.09,6.74,0,8.9,1.89,8.92,8.48q.12,47.75,0,95.48c0,9.71-5.68,15.08-15.33,15.27-4.66.09-9.33.17-14,0-9.43-.42-14.62-5.91-14.64-15.37C255.07,117.7,255.1,101.21,255.1,84.71Zm29.59,42.65c0-4.71-3-7.72-7.78-7.68a7.75,7.75,0,0,0-7.83,7.36,7.63,7.63,0,0,0,7.76,7.87C281.68,135,284.64,132.17,284.69,127.36Z"/><path class="cls-1" d="M43.86,30.37V35q0,49.93,0,99.86c0,8.5-5.06,14.17-13.58,14.71a139.23,139.23,0,0,1-16.47,0C5.44,149.07.06,143.3.05,134.79Q-.06,86.87,0,38.94c0-6.34,2.14-8.52,8.31-8.56C20,30.32,31.6,30.37,43.86,30.37Zm-14,96.72c-.09-4.43-3.13-7.39-7.62-7.41-4.67,0-8.07,3.19-8,7.61,0,4.71,3.49,7.82,8.49,7.62A7.29,7.29,0,0,0,29.84,127.09Z"/></svg>