<svg id="Capa_1" data-name="Capa 1" xmlns="http://www.w3.org/2000/svg" viewBox="0 0 178.78 239.22"><defs><style>.cls-1{fill:#203d9d;}</style></defs><path class="cls-1" d="M89.49,239.22c-7.74-9.1-15.22-17.55-22.33-26.29C47.28,188.46,28.71,163.07,14.09,135,5.72,119-1,102.31.13,83.64,2.82,39.36,36.61,4.74,80.79.44c46.82-4.54,85.7,26.34,95.55,66.87,5.15,21.18,1.9,40.91-7.47,60.06-17.84,36.51-42.24,68.5-68.39,99.28C97.06,230.68,93.52,234.61,89.49,239.22Zm.19-180A30.75,30.75,0,0,0,59.06,89.15c-.29,16.18,13.68,30.4,30,30.55,16.64.16,30.86-13.73,30.89-30.18C120,73.25,106,59.28,89.68,59.22Z"/></svg>